<svg width="38" height="26" viewBox="0 0 38 26" fill="none" xmlns="http://www.w3.org/2000/svg">
<rect x="0.5" y="0.5" width="37" height="25" rx="2.5" stroke="white" stroke-opacity="0.7"/>
<mask id="mask0_5226_1724" style="mask-type:luminance" maskUnits="userSpaceOnUse" x="5" y="7" width="28" height="12">
<path d="M32.33 7.19995H5.5V18.387H32.33V7.19995Z" fill="white"/>
</mask>
<g mask="url(#mask0_5226_1724)">
<path d="M15.3569 12.9679C15.3569 10.4451 13.8429 9.35108 12.1203 8.96522V8.83439C15.2536 8.9984 17.5489 10.9049 17.5479 13.0864C17.547 15.577 14.8459 17.3527 11.5154 17.3508C8.18395 17.3489 5.49905 15.4357 5.5 13.0788C5.50095 10.6053 7.84739 8.82015 11.8453 8.823L11.8444 11.8957L10.8992 11.8767C8.87414 11.9468 6.52769 12.8285 6.52769 14.0155C6.52769 15.321 8.75373 16.891 11.4273 16.8929C13.5898 16.8929 15.356 15.3257 15.3569 12.9679Z" fill="white" stroke="white" stroke-width="0.0918445"/>
<path d="M11.8254 16.5382C10.6773 16.4558 9.20215 15.6897 9.20215 14.371C9.20215 13.0655 10.4602 12.1203 11.8264 12.0691L11.8254 16.5382Z" fill="white" stroke="white" stroke-width="0.0918445"/>
<path d="M29.7352 10.609L29.6745 10.9485C29.5171 10.8954 28.0191 10.5446 27.9973 11.6595C27.9802 12.5526 29.3436 12.4426 29.6554 12.3592L29.6906 12.7289C28.6657 13.0152 27.3044 12.7024 27.2768 11.65C27.2446 10.4365 29.0449 10.2867 29.7352 10.609Z" fill="white" stroke="white" stroke-width="0.0918445"/>
<path d="M30.7936 12.7916V10.8794L29.873 10.8785V10.5144L32.3484 10.5154V10.8804H31.445V12.7926L30.7936 12.7916Z" fill="white" stroke="white" stroke-width="0.0918445"/>
<path d="M25.2725 10.4934L27.0985 10.4953L27.0976 10.8764H25.8822L25.8811 12.7706L25.2715 12.7697L25.2725 10.4934Z" fill="white" stroke="white" stroke-width="0.0918445"/>
<path d="M27.0265 11.4539H25.8242V11.8359H27.0265V11.4539Z" fill="white" stroke="white" stroke-width="0.0918445"/>
<path d="M27.0881 12.3896H25.8242V12.7717H27.0881V12.3896Z" fill="white" stroke="white" stroke-width="0.0918445"/>
<path d="M21.8701 10.4963H21.1885V12.7631H21.8701V10.4963Z" fill="white" stroke="white" stroke-width="0.0918445"/>
<path d="M18.7363 10.5125H18.0547V12.7793H18.7363V10.5125Z" fill="white" stroke="white" stroke-width="0.0918445"/>
<path d="M18.5068 12.7802L18.6452 12.4124L19.1552 12.3981C19.7468 12.3981 20.1043 12.0692 20.1043 11.635C20.1043 11.1097 19.6274 10.8613 19.2605 10.8613L18.6404 10.8272L18.5551 10.5125L19.2757 10.5134C20.1043 10.5144 20.8209 10.958 20.8209 11.6577C20.8209 12.3612 20.1034 12.7812 19.2748 12.7802H18.5068Z" fill="white" stroke="white" stroke-width="0.0918445"/>
<path d="M18.7353 13.3613H18.0537V15.6281H18.7353V13.3613Z" fill="white" stroke="white" stroke-width="0.0918445"/>
<path d="M18.5059 15.6284L18.6443 15.2605L19.1544 15.2463C19.746 15.2463 20.1034 14.9173 20.1034 14.4831C20.1034 13.9579 19.6265 13.7095 19.2596 13.7095L18.6396 13.6754L18.5533 13.3606H19.2738C20.1024 13.3615 20.8192 13.8052 20.8192 14.5049C20.8192 15.2084 20.1015 15.6284 19.2738 15.6274L18.5059 15.6284Z" fill="white" stroke="white" stroke-width="0.0918445"/>
<path d="M25.6034 13.1848H24.9453V15.6422H25.6034V13.1848Z" fill="white" stroke="white" stroke-width="0.0918445"/>
<path d="M29.2429 13.9805H28.585V15.6652H29.2429V13.9805Z" fill="white" stroke="white" stroke-width="0.0918445"/>
<path d="M29.2429 13.1926H28.585V13.6268H29.2429V13.1926Z" fill="white" stroke="white" stroke-width="0.0918445"/>
<path d="M30.8076 15.2223L30.8087 13.5471H31.4808L31.4799 15.1455C31.4799 15.3598 31.8467 15.4271 32.0571 15.356V15.7286C31.604 15.8338 30.8076 15.8187 30.8076 15.2223Z" fill="white" stroke="white" stroke-width="0.0918445"/>
<path d="M32.038 13.9812H30.2832V14.3396H32.038V13.9812Z" fill="white" stroke="white" stroke-width="0.0918445"/>
<path d="M22.2421 14.901C22.2752 15.5551 23.5921 15.3219 23.7684 15.1361V15.5324C23.5058 15.6566 23.1683 15.6708 22.7928 15.6698C22.1093 15.6698 21.5557 15.3209 21.5557 14.7531C21.5557 14.2468 22.0666 13.8467 22.7939 13.8477C23.3542 13.8477 23.9741 14.1112 23.9315 14.9029L22.2421 14.901ZM22.2468 14.5871L23.3057 14.5852C23.2773 14.3293 23.0868 14.1861 22.8004 14.1861C22.4895 14.1861 22.2562 14.3046 22.2468 14.5871Z" fill="white" stroke="white" stroke-width="0.0918445"/>
<path d="M24.68 11.0944C24.68 11.6339 24.1719 11.6746 24.1454 11.6765C24.226 11.7287 24.299 11.8339 24.3028 11.8386L24.8252 12.7696L24.1132 12.7687L23.7538 12.0908C23.7492 12.0795 23.6581 11.8567 23.3813 11.8614H23.1291V12.7677H22.4531L22.454 10.4915L23.6761 10.4924C24.0184 10.4924 24.68 10.5796 24.68 11.0944ZM23.1243 11.4755H23.5681C23.7444 11.4755 23.9975 11.3608 23.9975 11.1731C23.9975 10.9655 23.789 10.865 23.5775 10.865H23.1243V11.4755Z" fill="white" stroke="white" stroke-width="0.0918445"/>
<path d="M25.4043 14.7958C25.4043 14.1682 25.8196 13.9151 26.413 13.916C26.9676 13.916 27.4122 14.2128 27.4122 14.7968C27.4122 15.3675 26.9628 15.706 26.4082 15.705C25.7664 15.706 25.4043 15.4329 25.4043 14.7958ZM25.5996 14.8157C25.5996 15.102 25.8574 15.3334 26.177 15.3343C26.4955 15.3343 26.7543 15.103 26.7543 14.8167C26.7543 14.5304 26.4964 14.299 26.177 14.2981C25.8583 14.2981 25.5996 14.5294 25.5996 14.8157Z" fill="white" stroke="white" stroke-width="0.0918445"/>
</g>
</svg>
